<?xml version="1.0" standalone="no"?>
<!DOCTYPE svg PUBLIC "-//W3C//DTD SVG 20010904//EN"
 "http://www.w3.org/TR/2001/REC-SVG-20010904/DTD/svg10.dtd">
<svg version="1.0" xmlns="http://www.w3.org/2000/svg"
 width="200.000000pt" height="200.000000pt" viewBox="0 0 200.000000 200.000000"
 preserveAspectRatio="xMidYMid meet">
<metadata>
Created by potrace 1.15, written by Peter Selinger 2001-2017
</metadata>
<g transform="translate(0.000000,200.000000) scale(0.100000,-0.100000)"
fill="#000000" stroke="none">
<path d="M800 1873 c-324 -54 -591 -292 -682 -610 -33 -113 -33 -333 0 -446
82 -284 304 -507 584 -588 105 -30 279 -37 389 -15 131 27 324 115 301 138 -8
8 -35 -2 -89 -30 -139 -72 -206 -87 -378 -87 -143 1 -154 2 -245 33 -124 43
-215 98 -306 185 -341 323 -341 851 0 1174 91 87 182 142 306 185 90 31 103
32 240 33 164 0 227 -13 347 -70 222 -104 387 -299 448 -530 41 -150 27 -359
-31 -500 -30 -71 -33 -86 -18 -92 12 -4 53 87 81 182 14 46 18 94 17 210 0
136 -3 158 -28 235 -51 154 -117 260 -228 366 -163 157 -363 236 -585 233 -54
-1 -109 -4 -123 -6z"/>
<path d="M840 1761 c-165 -23 -301 -91 -421 -211 -71 -71 -93 -101 -132 -180
-62 -127 -80 -201 -80 -330 0 -129 18 -203 80 -330 61 -126 177 -245 299 -307
216 -112 459 -116 664 -13 33 17 60 34 60 40 0 18 -17 19 -47 0 -17 -10 -62
-30 -101 -43 -256 -93 -535 -29 -727 168 -114 116 -174 240 -196 404 -19 141
17 311 93 439 47 79 161 192 243 240 258 150 577 123 808 -70 89 -75 170 -200
211 -326 39 -116 37 -298 -4 -417 -23 -66 -25 -85 -9 -85 30 0 71 174 71 300
-1 119 -22 212 -72 315 -116 238 -342 389 -610 408 -41 3 -100 2 -130 -2z"/>
<path d="M826 1563 c-4 -4 51 -65 121 -135 l127 -128 -29 -30 -29 -30 -126
125 c-111 111 -150 141 -150 118 0 -4 57 -65 127 -135 l128 -128 -33 -32 -32
-33 -129 129 c-86 86 -131 124 -136 116 -10 -16 258 -287 302 -306 41 -18 81
-17 113 1 25 14 30 9 421 -382 265 -264 399 -391 404 -383 5 8 -126 146 -386
406 -383 383 -392 393 -381 419 7 14 12 45 12 67 0 40 -5 47 -152 195 -84 84
-155 153 -158 153 -4 0 -10 -3 -14 -7z m294 -354 c0 -51 -16 -57 -53 -20 l-31
31 29 30 c27 29 31 30 42 14 7 -10 13 -35 13 -55z m-57 -86 c-23 -17 -65 -16
-89 1 -18 14 -18 15 10 45 l30 31 33 -32 c31 -30 32 -34 16 -45z"/>
<path d="M526 1272 c-36 -70 -9 -184 71 -294 25 -35 122 -141 216 -235 l172
-173 62 62 63 63 290 -290 c193 -193 293 -286 300 -279 6 6 -186 205 -574 593
l-584 584 -16 -31z m554 -555 c0 -13 -82 -97 -95 -97 -7 0 -88 78 -181 173
-163 167 -220 242 -250 324 -14 41 -18 115 -7 127 7 7 533 -512 533 -527z"/>
<path d="M1490 633 c0 -5 -21 -32 -46 -61 -31 -36 -43 -57 -37 -63 11 -11 116
98 110 115 -4 13 -27 20 -27 9z"/>
<path d="M1532 499 c-69 -77 -58 -99 14 -28 51 51 63 72 46 83 -4 2 -31 -22
-60 -55z"/>
</g>
</svg>
